<svg data-v-423bf9ae="" xmlns="http://www.w3.org/2000/svg" viewBox="0 0 637.7143205915179 60" class="font"><!----><!----><!----><g data-v-423bf9ae="" id="c3e2a2fb-9c1c-4888-acf6-223327438ed0" fill="white" transform="matrix(5.714285714285714,0,0,5.714285714285714,-5.828558172498447,-1.1999991238117218)"><path d="M4.45 10.50C7.80 10.50 9.37 8.58 9.37 5.43C9.37 2.18 7.64 0.42 4.30 0.42L1.02 0.42L1.02 10.50ZM2.98 2.20L4.13 2.20C5.95 2.20 7.36 2.76 7.36 5.42C7.36 7.84 6.24 8.74 4.17 8.74L2.98 8.74ZM14.76 9.70C14.80 9.97 14.87 10.32 15.08 10.50L16.94 10.50C16.69 10.23 16.52 9.76 16.52 9.02L16.52 6.02C16.52 3.89 15.36 3.01 13.48 3.01C12.11 3.01 10.71 3.53 10.35 5.21L11.96 5.70C12.12 5.04 12.53 4.51 13.37 4.51C14.28 4.51 14.67 5.04 14.67 5.73L14.67 5.92C14.31 6.09 13.75 6.19 12.98 6.27C11.26 6.47 10.12 7.07 10.12 8.64C10.12 10.02 11.24 10.71 12.57 10.71C13.44 10.71 14.13 10.46 14.76 9.70ZM14.67 8.30C14.39 8.79 13.71 9.31 12.96 9.31C12.35 9.31 12.00 9.02 12.00 8.51C11.97 7.81 12.54 7.60 13.22 7.48C13.93 7.34 14.41 7.21 14.67 7.10ZM21.81 8.95C21.59 9.02 21.38 9.03 21.24 9.03C20.58 9.03 20.58 8.58 20.58 7.95L20.58 4.68L21.92 4.68L21.92 3.22L20.58 3.22L20.58 0.99L18.73 1.60L18.73 3.22L17.70 3.22L17.70 4.68L18.73 4.68L18.73 8.37C18.73 9.80 19.21 10.64 20.73 10.64C21 10.64 21.66 10.57 21.94 10.43ZM27.59 9.70C27.64 9.97 27.71 10.32 27.92 10.50L29.78 10.50C29.53 10.23 29.36 9.76 29.36 9.02L29.36 6.02C29.36 3.89 28.20 3.01 26.32 3.01C24.95 3.01 23.55 3.53 23.18 5.21L24.79 5.70C24.96 5.04 25.37 4.51 26.21 4.51C27.12 4.51 27.51 5.04 27.51 5.73L27.51 5.92C27.15 6.09 26.59 6.19 25.82 6.27C24.09 6.47 22.96 7.07 22.96 8.64C22.96 10.02 24.08 10.71 25.41 10.71C26.28 10.71 26.96 10.46 27.59 9.70ZM27.51 8.30C27.23 8.79 26.54 9.31 25.80 9.31C25.19 9.31 24.84 9.02 24.84 8.51C24.81 7.81 25.38 7.60 26.05 7.48C26.77 7.34 27.24 7.21 27.51 7.10ZM34.69 7.28C34.85 9.46 36.22 10.71 38.85 10.71C40.73 10.71 42.67 9.73 42.67 7.62C42.67 5.98 41.65 5.14 40.18 4.72C39.21 4.45 38.07 4.13 37.60 3.95C37.10 3.75 36.90 3.47 36.90 3.05C36.90 2.32 37.63 1.92 38.58 1.92C39.79 1.92 40.29 2.51 40.42 3.40L42.35 3.30C42.21 1.20 40.87 0.21 38.53 0.21C36.74 0.21 35.01 1.18 35.01 3.22C35.01 4.17 35.32 5.21 37.10 5.75C37.70 5.95 39.02 6.27 39.55 6.47C40.35 6.75 40.64 7.10 40.64 7.69C40.64 8.57 39.86 9.00 38.79 9.00C37.51 9.00 36.71 8.48 36.60 7.17L34.69 7.28ZM48.58 3.22L48.58 7.18C48.58 8.48 47.92 9.16 47.07 9.16C46.17 9.16 45.84 8.60 45.84 7.63L45.84 3.22L43.99 3.22L43.99 7.69C43.99 9.42 44.58 10.71 46.59 10.71C47.50 10.71 48.17 10.32 48.71 9.45L48.71 10.50L50.43 10.50L50.43 3.22ZM53.90 10.50L53.90 6.73C53.90 5.50 54.29 4.56 55.30 4.56C55.90 4.56 56.29 4.98 56.29 5.98L56.29 10.50L58.14 10.50L58.14 6.38C58.14 5.29 58.65 4.56 59.53 4.56C60.31 4.56 60.52 5.21 60.52 6.02L60.52 10.50L62.37 10.50L62.37 5.52C62.37 3.89 61.49 3.01 60.09 3.01C59.18 3.01 58.41 3.39 57.95 4.35C57.65 3.50 56.94 3.01 55.87 3.01C54.91 3.01 54.28 3.36 53.77 4.26L53.77 3.22L52.05 3.22L52.05 10.50ZM65.84 10.50L65.84 6.73C65.84 5.50 66.23 4.56 67.24 4.56C67.84 4.56 68.24 4.98 68.24 5.98L68.24 10.50L70.08 10.50L70.08 6.38C70.08 5.29 70.59 4.56 71.47 4.56C72.25 4.56 72.46 5.21 72.46 6.02L72.46 10.50L74.31 10.50L74.31 5.52C74.31 3.89 73.43 3.01 72.03 3.01C71.12 3.01 70.35 3.39 69.89 4.35C69.59 3.50 68.88 3.01 67.82 3.01C66.85 3.01 66.22 3.36 65.72 4.26L65.72 3.22L63.99 3.22L63.99 10.50ZM80.19 9.70C80.23 9.97 80.30 10.32 80.51 10.50L82.38 10.50C82.12 10.23 81.96 9.76 81.96 9.02L81.96 6.02C81.96 3.89 80.79 3.01 78.92 3.01C77.55 3.01 76.15 3.53 75.78 5.21L77.39 5.70C77.56 5.04 77.97 4.51 78.81 4.51C79.72 4.51 80.11 5.04 80.11 5.73L80.11 5.92C79.74 6.09 79.18 6.19 78.41 6.27C76.69 6.47 75.56 7.07 75.56 8.64C75.56 10.02 76.68 10.71 78.01 10.71C78.88 10.71 79.56 10.46 80.19 9.70ZM80.11 8.30C79.83 8.79 79.14 9.31 78.40 9.31C77.78 9.31 77.43 9.02 77.43 8.51C77.41 7.81 77.98 7.60 78.65 7.48C79.37 7.34 79.84 7.21 80.11 7.10ZM85.51 10.50L85.51 7.06C85.51 5.64 86.11 4.75 87.32 4.75C87.75 4.75 88.05 4.87 88.33 5.03L88.66 3.39C88.33 3.12 87.93 3.01 87.37 3.01C86.37 3.01 85.85 3.50 85.39 4.48L85.39 3.22L83.66 3.22L83.66 10.50ZM91.43 2.18L91.43 0.42L89.59 0.42L89.59 2.18ZM91.43 10.50L91.43 3.22L89.59 3.22L89.59 10.50ZM92.64 8.40C92.76 9.77 93.88 10.71 95.66 10.71C97.31 10.71 98.66 9.98 98.66 8.37C98.66 6.92 97.61 6.41 96.78 6.22L95.02 5.81C94.64 5.73 94.39 5.52 94.39 5.21C94.39 4.69 94.88 4.45 95.59 4.45C96.24 4.45 96.75 4.72 96.87 5.38L98.46 5.11C98.39 3.96 97.38 3.01 95.65 3.01C94.15 3.01 92.79 3.65 92.79 5.28C92.79 6.48 93.62 7.10 94.57 7.32L96.32 7.73C96.74 7.84 97.01 8.04 97.01 8.44C97.01 9.10 96.32 9.27 95.70 9.27C94.79 9.27 94.32 8.81 94.23 8.13L92.64 8.40ZM106.40 7.38C106.40 7.34 106.41 6.93 106.41 6.61C106.41 4.27 104.92 3.01 102.97 3.01C101.07 3.01 99.44 4.26 99.44 6.86C99.44 9.46 101.05 10.71 102.97 10.71C104.66 10.71 105.78 9.95 106.29 8.46L104.57 8.09C104.37 8.75 103.81 9.17 103.08 9.17C102.12 9.17 101.36 8.61 101.29 7.38ZM102.93 4.55C103.85 4.55 104.47 5.17 104.52 6.08L101.32 6.08C101.44 5.07 102.19 4.55 102.93 4.55ZM109.47 10.50L109.47 7.06C109.47 5.64 110.07 4.75 111.27 4.75C111.71 4.75 112.00 4.87 112.28 5.03L112.62 3.39C112.28 3.12 111.89 3.01 111.33 3.01C110.32 3.01 109.80 3.50 109.34 4.48L109.34 3.22L107.62 3.22L107.62 10.50Z"></path></g><!----><!----></svg>